<mxfile host="app.diagrams.net" modified="2024-03-23T18:36:11.869Z" agent="Mozilla/5.0 (Windows NT 10.0; Win64; x64) AppleWebKit/537.36 (KHTML, like Gecko) Chrome/122.0.0.0 Safari/537.36 OPR/108.0.0.0" version="24.1.0" etag="oj7H1sZoO7_3s1lPGVBE" type="github">
  <diagram name="Page-1" id="EVciN05iduIXBQBcp5vu">
    <mxGraphModel>
      <root>
        <mxCell id="0" />
        <mxCell id="1" parent="0" />
      </root>
    </mxGraphModel>
  </diagram>
</mxfile>
